<?xml version="1.0" encoding="UTF-8"?>
<!DOCTYPE svg PUBLIC "-//W3C//DTD SVG 1.1//EN" "http://www.w3.org/Graphics/SVG/1.1/DTD/svg11.dtd">
<svg xmlns="http://www.w3.org/2000/svg" version="1.1" width="512px" height="512px" style="shape-rendering:geometricPrecision; text-rendering:geometricPrecision; image-rendering:optimizeQuality; fill-rule:evenodd; clip-rule:evenodd" xmlns:xlink="http://www.w3.org/1999/xlink">
<g><path style="opacity:0.997" fill="#2d5fd2" d="M 232.5,-0.5 C 247.167,-0.5 261.833,-0.5 276.5,-0.5C 299.525,1.83944 321.859,7.17278 343.5,15.5C 342.503,35.6598 342.17,55.9931 342.5,76.5C 282.167,76.5 221.833,76.5 161.5,76.5C 156.927,133.488 152.76,190.488 149,247.5C 157.299,252.981 165.965,257.647 175,261.5C 192.676,257.816 210.51,255.483 228.5,254.5C 245.396,254.223 261.729,257.056 277.5,263C 295.581,271.081 306.081,284.914 309,304.5C 310.517,319.211 308.851,333.545 304,347.5C 295.392,364.9 281.559,375.734 262.5,380C 220.36,387.588 180.36,381.421 142.5,361.5C 142.44,360.957 142.107,360.624 141.5,360.5C 140.173,377.662 140.173,394.662 141.5,411.5C 141.831,436.006 141.498,460.339 140.5,484.5C 70.7285,448.207 25.8952,391.873 6,315.5C 3.27024,302.785 1.10358,290.118 -0.5,277.5C -0.5,262.5 -0.5,247.5 -0.5,232.5C 10.3875,142.857 54.7208,75.3573 132.5,30C 163.971,13.3053 197.304,3.1386 232.5,-0.5 Z"/></g>
<g><path style="opacity:0.997" fill="#f6c344" d="M 343.5,15.5 C 415.534,42.7001 466.034,92.0334 495,163.5C 503.367,186.293 508.867,209.626 511.5,233.5C 511.5,248.5 511.5,263.5 511.5,278.5C 500.612,368.145 456.278,435.645 378.5,481C 347.03,497.695 313.697,507.861 278.5,511.5C 263.5,511.5 248.5,511.5 233.5,511.5C 200.84,508.251 169.84,499.251 140.5,484.5C 141.498,460.339 141.831,436.006 141.5,411.5C 155.47,419.325 170.47,424.491 186.5,427C 216.882,431.74 247.216,431.407 277.5,426C 336.476,411.011 366.476,373.011 367.5,312C 365.296,254.125 335.63,220.125 278.5,210C 253.373,207.439 228.373,208.273 203.5,212.5C 205.833,185.167 208.167,157.833 210.5,130.5C 211.404,129.791 211.737,128.791 211.5,127.5C 255.337,127.832 299.003,127.499 342.5,126.5C 343.028,89.5022 343.362,52.5022 343.5,15.5 Z"/></g>
<g><path style="opacity:1" fill="#fdfdfe" d="M 343.5,15.5 C 343.362,52.5022 343.028,89.5022 342.5,126.5C 298.5,126.5 254.5,126.5 210.5,126.5C 210.5,127.833 210.5,129.167 210.5,130.5C 208.167,157.833 205.833,185.167 203.5,212.5C 228.373,208.273 253.373,207.439 278.5,210C 335.63,220.125 365.296,254.125 367.5,312C 366.476,373.011 336.476,411.011 277.5,426C 247.216,431.407 216.882,431.74 186.5,427C 170.47,424.491 155.47,419.325 141.5,411.5C 141.17,394.658 141.503,377.992 142.5,361.5C 180.36,381.421 220.36,387.588 262.5,380C 281.559,375.734 295.392,364.9 304,347.5C 308.851,333.545 310.517,319.211 309,304.5C 306.081,284.914 295.581,271.081 277.5,263C 261.729,257.056 245.396,254.223 228.5,254.5C 210.51,255.483 192.676,257.816 175,261.5C 165.965,257.647 157.299,252.981 149,247.5C 152.76,190.488 156.927,133.488 161.5,76.5C 221.833,76.5 282.167,76.5 342.5,76.5C 342.17,55.9931 342.503,35.6598 343.5,15.5 Z"/></g>
<g><path style="opacity:1" fill="#f9d782" d="M 342.5,126.5 C 299.003,127.499 255.337,127.832 211.5,127.5C 211.737,128.791 211.404,129.791 210.5,130.5C 210.5,129.167 210.5,127.833 210.5,126.5C 254.5,126.5 298.5,126.5 342.5,126.5 Z"/></g>
<g><path style="opacity:0.999" fill="#668add" d="M 142.5,361.5 C 141.503,377.992 141.17,394.658 141.5,411.5C 140.173,394.662 140.173,377.662 141.5,360.5C 142.107,360.624 142.44,360.957 142.5,361.5 Z"/></g>
</svg>
