<?xml version="1.0" encoding="UTF-8" standalone="no" ?>
<!DOCTYPE svg PUBLIC "-//W3C//DTD SVG 1.1//EN" "http://www.w3.org/Graphics/SVG/1.1/DTD/svg11.dtd">
<svg xmlns="http://www.w3.org/2000/svg" xmlns:xlink="http://www.w3.org/1999/xlink" version="1.1" width="500" height="500" viewBox="0 0 500 500" xml:space="preserve">
<desc>Created with Fabric.js 4.6.0</desc>
<defs>
</defs>
<g transform="matrix(8.07 0 0 8.07 250 250.14)" id="NaBGcKteYb7gztEjb-gkc"  >
<g style="" vector-effect="non-scaling-stroke"   >
		<g transform="matrix(1.79 0 0 1.79 9.29 10.13)" id="n58rOo3BkwGQlgMkTT7Tt"  >
<path style="stroke: none; stroke-width: 1; stroke-dasharray: none; stroke-linecap: butt; stroke-dashoffset: 0; stroke-linejoin: miter; stroke-miterlimit: 4; fill: rgb(1,167,28); fill-rule: nonzero; opacity: 1;" vector-effect="non-scaling-stroke"  transform=" translate(-21.45, -22.66)" d="M 21.45 21.51 C 20.154325656423236 21.470610377128494 19.04516703127008 22.431881185594566 18.9 23.720000000000002 C 18.893687457717704 23.7443954346442 18.899238009065627 23.770339233416777 18.91497964776354 23.790016281789168 C 18.930721286461456 23.80969333016156 18.95481389594369 23.820803482426687 18.979999999999997 23.820000000000004 L 23.929999999999996 23.820000000000004 C 23.953069269942944 23.820181033316803 23.975093655887147 23.81039428846839 23.990420516528154 23.793151570247257 C 24.005747377169165 23.77590885202612 24.012884457838954 23.75288894693379 24.009999999999994 23.730000000000004 C 23.9087300007624 22.41374413957827 22.76733797375531 21.423943241158057 21.449999999999996 21.510000000000005 z" stroke-linecap="round" />
</g>
		<g transform="matrix(1.79 0 0 1.79 0 0)" id="xMCmbk-be3NsfCI_LQUAU"  >
<path style="stroke: none; stroke-width: 1; stroke-dasharray: none; stroke-linecap: butt; stroke-dashoffset: 0; stroke-linejoin: miter; stroke-miterlimit: 4; fill: rgb(1,167,28); fill-rule: nonzero; opacity: 1;" vector-effect="non-scaling-stroke"  transform=" translate(-16.26, -17)" d="M 32.06 4.91 L 21.560000000000002 16.7 C 21.499428162066973 16.765536411798774 21.414241071385568 16.802801933710263 21.325000000000003 16.802801933710263 C 21.235758928614437 16.802801933710263 21.150571837933033 16.765536411798774 21.090000000000003 16.7 L 15.730000000000004 11.169999999999998 C 15.63639989324792 11.053093504136669 15.63639989324792 10.886906495863329 15.730000000000004 10.769999999999998 L 17.500000000000004 8.499999999999998 C 17.560106269772685 8.416227109180673 17.656894903606986 8.366547581061775 17.760000000000005 8.366547581061775 C 17.86310509639302 8.366547581061775 17.95989373022732 8.416227109180673 18.020000000000003 8.499999999999998 L 21.020000000000003 11.819999999999999 C 21.08080139723389 11.892364370473723 21.170483271217996 11.934148111497608 21.265 11.934148111497608 C 21.35951672878201 11.934148111497608 21.449198602766113 11.892364370473723 21.51 11.819999999999999 L 29.87 0.35999999999999766 C 29.917363914653162 0.29102816839371276 29.923536844270373 0.20177604567556442 29.88611905714607 0.1269404714269624 C 29.84870127002177 0.05210489717836042 29.773595814076923 0.0034919672412409564 29.69 -2.3314683517128287e-15 L 0.25 -2.3314683517128287e-15 C 0.11192881254230164 -2.3314683517128287e-15 0 0.1119288125422993 0 0.24999999999999767 L 0 33.75 C 0 33.8880711874577 0.11192881254230164 34 0.25 34 L 32.25 34 C 32.3880711874577 34 32.5 33.8880711874577 32.5 33.75 L 32.5 5.059999999999999 C 32.54142135623731 4.938497355037224 32.47650264496278 4.806421356237309 32.355000000000004 4.765 C 32.23349735503723 4.72357864376269 32.10142135623731 4.788497355037224 32.06 4.909999999999998 z M 9.060000000000002 30.27 C 6.95928037568007 30.37586409639999 4.900079673473241 29.658372562530015 3.320000000000001 28.27 C 3.2167204254462285 28.15284553550408 3.216720425446228 27.977154464495918 3.320000000000002 27.86 L 4.570000000000002 26.11 C 4.611697789495077 26.03758813262692 4.6808622188917886 25.985075972404136 4.761814854534551 25.964367158635056 C 4.842767490177314 25.943658344865977 4.928652077775421 25.95650680306683 5.000000000000002 26 C 6.141896751150545 27.058660699454997 7.642865428533122 27.64475323062343 9.200000000000003 27.64 C 10.840000000000003 27.64 11.640000000000002 26.88 11.640000000000002 26.080000000000002 C 11.640000000000002 23.6 3.5600000000000023 25.3 3.5600000000000023 20.020000000000003 C 3.5600000000000023 17.690000000000005 5.560000000000002 15.750000000000004 8.880000000000003 15.750000000000004 C 10.785287039616676 15.682256287589878 12.650528207990874 16.307556184035324 14.129999999999995 17.509999999999998 C 14.245563847544972 17.630039723694857 14.245563847544972 17.819960276305153 14.130000000000003 17.940000000000005 L 12.900000000000002 19.650000000000006 C 12.848661453497066 19.718749342074197 12.771124780005827 19.763145730681114 12.685846784830927 19.772621063478326 C 12.600568789656027 19.782096396275534 12.515177705824032 19.755803091815647 12.450000000000003 19.700000000000006 C 11.359090966817913 18.832946101614663 10.003446988145598 18.366943483946056 8.610000000000003 18.380000000000006 C 7.330000000000003 18.380000000000006 6.610000000000003 18.950000000000006 6.610000000000003 19.790000000000006 C 6.610000000000003 22.020000000000007 14.670000000000003 20.530000000000005 14.670000000000003 25.790000000000006 C 14.670000000000003 28.330000000000005 12.840000000000003 30.270000000000007 9.050000000000004 30.270000000000007 z M 26.680000000000003 25.4 C 26.6828368212908 25.475094387625145 26.654248907128768 25.54797365499703 26.6011112810629 25.601111281062895 C 26.547973654997033 25.654248907128764 26.47509438762515 25.682836821290795 26.400000000000002 25.68 L 19 25.68 C 18.976069162259268 25.682509533839166 18.954139737005168 25.694497317057884 18.939108286982606 25.713286629586086 C 18.924076836960047 25.73207594211429 18.917195214973173 25.756101967946787 18.92 25.78 C 19.168728123489053 27.213286950683823 20.47023130958305 28.219782747929848 21.92 28.1 C 22.837838616767932 28.080568976349586 23.729078524165946 27.788130881734613 24.48 27.26 C 24.53927625101004 27.21030456726812 24.617019910822254 27.188419087878746 24.693515975365955 27.1998934975603 C 24.770012039909655 27.211367907241854 24.837913050813935 27.255100087238702 24.88 27.32 L 25.779999999999998 28.63 C 25.857676902506984 28.75050546797844 25.831777750052836 28.910216908112343 25.72 29 C 24.53185200720207 29.86706620933225 23.090416568411587 30.317075321930254 21.619999999999997 30.28 C 20.1346904830319 30.362863302128233 18.68333941877969 29.815308686615563 17.622901457448293 28.77200527044033 C 16.562463496116898 27.7287018542651 15.991341173279666 26.28646218589085 16.049999999999997 24.800000000000004 C 16.008808603414643 23.35014049043727 16.562497296742343 21.946534704481035 17.582434487761613 20.915264878005996 C 18.602371678780884 19.883995051530956 19.999773859384675 19.314831176067564 21.449999999999992 19.34 C 24.559999999999995 19.34 26.669999999999995 21.67 26.669999999999995 25.08 z" stroke-linecap="round" />
</g>
</g>
</g>
</svg>