<?xml version="1.0" encoding="UTF-8"?>
<!DOCTYPE svg PUBLIC "-//W3C//DTD SVG 1.1//EN" "http://www.w3.org/Graphics/SVG/1.1/DTD/svg11.dtd">
<svg xmlns="http://www.w3.org/2000/svg" version="1.1" width="200px" height="200px" style="shape-rendering:geometricPrecision; text-rendering:geometricPrecision; image-rendering:optimizeQuality; fill-rule:evenodd; clip-rule:evenodd" xmlns:xlink="http://www.w3.org/1999/xlink">
<g><path style="opacity:1" fill="#f7f7f7" d="M 100.5,34.5 C 99.5918,37.7435 97.5918,40.0768 94.5,41.5C 83.6264,42.6139 73.6264,40.2806 64.5,34.5C 63.2073,32.7041 61.7073,31.0375 60,29.5C 59.51,28.2068 59.3433,26.8734 59.5,25.5C 59.8333,24.1667 60.1667,22.8333 60.5,21.5C 62.7556,15.4159 67.0889,11.5825 73.5,10C 91.208,8.54051 100.208,16.7072 100.5,34.5 Z"/></g>
<g><path style="opacity:1" fill="#ff8900" d="M 58.5,26.5 C 54.7678,30.7413 51.6011,35.408 49,40.5C 45.0277,55.5862 49.1944,67.7529 61.5,77C 79.8549,85.7957 93.6883,81.2957 103,63.5C 103.167,60.8333 103.333,58.1667 103.5,55.5C 102.715,48.4757 101.715,41.4757 100.5,34.5C 106.238,42.1084 108.571,50.7751 107.5,60.5C 98.1472,82.6615 82.1472,89.1615 59.5,80C 43.8455,68.2152 40.0122,53.3819 48,35.5C 50.4593,31.2017 53.9593,28.2017 58.5,26.5 Z"/></g>
<g><path style="opacity:1" fill="#e5e5e5" d="M 46.5,30.5 C 41.8758,36.4166 38.8758,43.0833 37.5,50.5C 36.9483,59.4944 34.7816,59.8277 31,51.5C 28.4198,38.6314 33.5865,31.6314 46.5,30.5 Z"/></g>
<g><path style="opacity:1" fill="#ff9f01" d="M 59.5,25.5 C 59.3433,26.8734 59.51,28.2068 60,29.5C 61.7073,31.0375 63.2073,32.7041 64.5,34.5C 55.0675,47.8828 56.9008,59.5494 70,69.5C 83.7669,74.0859 93.2669,69.2525 98.5,55C 97.233,53.2041 97.233,51.3707 98.5,49.5C 97.7207,46.4555 96.3873,43.7889 94.5,41.5C 97.5918,40.0768 99.5918,37.7435 100.5,34.5C 101.715,41.4757 102.715,48.4757 103.5,55.5C 103.333,58.1667 103.167,60.8333 103,63.5C 93.6883,81.2957 79.8549,85.7957 61.5,77C 49.1944,67.7529 45.0277,55.5862 49,40.5C 51.6011,35.408 54.7678,30.7413 58.5,26.5C 58.5,25.8333 58.8333,25.5 59.5,25.5 Z"/></g>
<g><path style="opacity:1" fill="#ffb102" d="M 64.5,34.5 C 73.6264,40.2806 83.6264,42.6139 94.5,41.5C 96.3873,43.7889 97.7207,46.4555 98.5,49.5C 97.233,51.3707 97.233,53.2041 98.5,55C 93.2669,69.2525 83.7669,74.0859 70,69.5C 56.9008,59.5494 55.0675,47.8828 64.5,34.5 Z"/></g>
<g><path style="opacity:1" fill="#e6e8e9" d="M 160.5,55.5 C 154.466,47.4836 146.466,43.1503 136.5,42.5C 146.376,35.952 154.209,37.952 160,48.5C 160.497,50.8098 160.663,53.1432 160.5,55.5 Z"/></g>
<g><path style="opacity:0.926" fill="#aeadac" d="M 48.5,28.5 C 48.1667,29.5 47.5,30.1667 46.5,30.5C 33.5865,31.6314 28.4198,38.6314 31,51.5C 34.7816,59.8277 36.9483,59.4944 37.5,50.5C 37.3375,55.547 37.6708,60.547 38.5,65.5C 27.1696,57.5095 25.0029,47.5095 32,35.5C 36.5138,30.937 42.0138,28.6036 48.5,28.5 Z"/></g>
<g><path style="opacity:1" fill="#0aa5fe" d="M 162.5,64.5 C 160.097,64.448 157.764,64.7814 155.5,65.5C 153.63,57.5266 148.296,53.6933 139.5,54C 130.254,57.96 128.088,64.46 133,73.5C 136.53,77.7801 140.863,79.1135 146,77.5C 146.464,78.0944 146.631,78.7611 146.5,79.5C 146.5,80.1667 146.5,80.8333 146.5,81.5C 145.532,83.6074 145.198,85.9407 145.5,88.5C 144.778,88.0825 144.278,87.4158 144,86.5C 129.76,87.7519 121.926,81.0852 120.5,66.5C 121.026,58.8096 124.359,52.643 130.5,48C 146.751,43.2886 157.418,48.7886 162.5,64.5 Z"/></g>
<g><path style="opacity:1" fill="#03b3ff" d="M 155.5,65.5 C 151.975,69.8967 148.975,74.5633 146.5,79.5C 146.631,78.7611 146.464,78.0944 146,77.5C 140.863,79.1135 136.53,77.7801 133,73.5C 128.088,64.46 130.254,57.96 139.5,54C 148.296,53.6933 153.63,57.5266 155.5,65.5 Z"/></g>
<g><path style="opacity:1" fill="#0687fe" d="M 135.5,42.5 C 135.833,42.5 136.167,42.5 136.5,42.5C 146.466,43.1503 154.466,47.4836 160.5,55.5C 162.485,58.1209 163.485,61.1209 163.5,64.5C 163.167,64.5 162.833,64.5 162.5,64.5C 157.418,48.7886 146.751,43.2886 130.5,48C 124.359,52.643 121.026,58.8096 120.5,66.5C 121.926,81.0852 129.76,87.7519 144,86.5C 144.278,87.4158 144.778,88.0825 145.5,88.5C 145.733,90.0618 146.4,91.3951 147.5,92.5C 140.9,95.0463 134.234,95.0463 127.5,92.5C 123.177,88.0078 119.01,83.3412 115,78.5C 113.871,70.592 114.704,62.9254 117.5,55.5C 119.167,53.6667 120.833,51.8333 122.5,50C 126.75,47.0085 131.083,44.5085 135.5,42.5 Z"/></g>
<g><path style="opacity:1" fill="#fdfefe" d="M 162.5,64.5 C 168.438,69.7194 169.938,76.0527 167,83.5C 162.789,87.3592 157.956,88.3592 152.5,86.5C 150.437,84.7575 148.437,83.0908 146.5,81.5C 146.5,80.8333 146.5,80.1667 146.5,79.5C 148.975,74.5633 151.975,69.8967 155.5,65.5C 157.764,64.7814 160.097,64.448 162.5,64.5 Z"/></g>
<g><path style="opacity:1" fill="#dbdbdb" d="M 162.5,64.5 C 162.833,64.5 163.167,64.5 163.5,64.5C 173.378,72.5806 174.045,81.4139 165.5,91C 160.481,94.2922 155.147,95.1256 149.5,93.5C 149.158,92.6618 148.492,92.3284 147.5,92.5C 146.4,91.3951 145.733,90.0618 145.5,88.5C 145.198,85.9407 145.532,83.6074 146.5,81.5C 148.437,83.0908 150.437,84.7575 152.5,86.5C 157.956,88.3592 162.789,87.3592 167,83.5C 169.938,76.0527 168.438,69.7194 162.5,64.5 Z"/></g>
<g><path style="opacity:1" fill="#036bfe" d="M 135.5,42.5 C 131.083,44.5085 126.75,47.0085 122.5,50C 120.833,51.8333 119.167,53.6667 117.5,55.5C 114.704,62.9254 113.871,70.592 115,78.5C 119.01,83.3412 123.177,88.0078 127.5,92.5C 134.234,95.0463 140.9,95.0463 147.5,92.5C 148.492,92.3284 149.158,92.6618 149.5,93.5C 136.187,99.2397 124.687,96.573 115,85.5C 105.26,67.0517 109.76,53.2184 128.5,44C 130.813,43.338 133.146,42.838 135.5,42.5 Z"/></g>
<g><path style="opacity:1" fill="#ff7402" d="M 60.5,21.5 C 60.1667,22.8333 59.8333,24.1667 59.5,25.5C 58.8333,25.5 58.5,25.8333 58.5,26.5C 53.9593,28.2017 50.4593,31.2017 48,35.5C 40.0122,53.3819 43.8455,68.2152 59.5,80C 82.1472,89.1615 98.1472,82.6615 107.5,60.5C 103.473,79.3616 91.806,89.695 72.5,91.5C 55.5704,89.8781 44.237,81.2114 38.5,65.5C 37.6708,60.547 37.3375,55.547 37.5,50.5C 38.8758,43.0833 41.8758,36.4166 46.5,30.5C 47.5,30.1667 48.1667,29.5 48.5,28.5C 52.0013,25.3365 56.0013,23.0031 60.5,21.5 Z"/></g>
<g><path style="opacity:1" fill="#bb00a4" d="M 85.5,141.5 C 85.3505,140.448 85.5172,139.448 86,138.5C 86.8925,146.065 91.0592,150.899 98.5,153C 117.47,156.011 128.47,148.011 131.5,129C 130.321,115.152 122.987,106.485 109.5,103C 96.798,101.939 87.6313,107.439 82,119.5C 81.874,122.063 81.7073,124.396 81.5,126.5C 80.2632,125.035 79.2632,123.368 78.5,121.5C 78.6107,120.883 78.944,120.383 79.5,120C 78.1667,118.667 76.8333,117.333 75.5,116C 92.594,92.8446 111.094,91.6779 131,112.5C 140.646,134.33 134.812,150.164 113.5,160C 108.167,160.667 102.833,160.667 97.5,160C 94.6703,158.084 91.6703,156.417 88.5,155C 87.2986,154.097 86.4652,152.931 86,151.5C 85.5017,148.183 85.335,144.85 85.5,141.5 Z"/></g>
<g><path style="opacity:1" fill="#cb00b2" d="M 85.5,141.5 C 85.1667,141.5 84.8333,141.5 84.5,141.5C 84.5382,136.284 83.5382,131.284 81.5,126.5C 81.7073,124.396 81.874,122.063 82,119.5C 87.6313,107.439 96.798,101.939 109.5,103C 122.987,106.485 130.321,115.152 131.5,129C 128.47,148.011 117.47,156.011 98.5,153C 91.0592,150.899 86.8925,146.065 86,138.5C 85.5172,139.448 85.3505,140.448 85.5,141.5 Z"/></g>
<g><path style="opacity:1" fill="#fbfafb" d="M 72.5,115.5 C 72.8333,115.5 73.1667,115.5 73.5,115.5C 75.1964,117.525 76.863,119.525 78.5,121.5C 79.2632,123.368 80.2632,125.035 81.5,126.5C 83.5382,131.284 84.5382,136.284 84.5,141.5C 85.0511,147.817 84.0511,153.817 81.5,159.5C 80.8444,158.722 80.0111,158.056 79,157.5C 66.013,160.006 57.3463,155.006 53,142.5C 52.3333,139.167 52.3333,135.833 53,132.5C 54.7649,127.975 56.7649,123.642 59,119.5C 63.4331,116.938 67.9331,115.604 72.5,115.5 Z"/></g>
<g><path style="opacity:1" fill="#8f067d" d="M 131.5,160.5 C 122.57,168.961 111.903,173.628 99.5,174.5C 95.1018,174.706 90.7685,174.373 86.5,173.5C 80.2296,172.035 74.8963,169.035 70.5,164.5C 73.3408,164.44 76.0075,163.774 78.5,162.5C 79.0989,165.168 80.7656,167.002 83.5,168C 94.375,173.456 105.375,173.789 116.5,169C 120.609,167.291 124.275,165.124 127.5,162.5C 128.522,158.276 130.689,154.609 134,151.5C 134.699,147.062 136.366,143.062 139,139.5C 139.667,133.167 139.667,126.833 139,120.5C 137.907,114.946 134.907,110.946 130,108.5C 126.825,99.9878 120.658,95.4878 111.5,95C 94.2078,92.3145 80.8745,98.3145 71.5,113C 72.3805,113.708 73.0472,114.542 73.5,115.5C 73.1667,115.5 72.8333,115.5 72.5,115.5C 68.5478,114.322 64.5478,114.322 60.5,115.5C 70.5571,95.9704 86.5571,87.8037 108.5,91C 129.231,96.7578 140.564,110.424 142.5,132C 142.059,142.836 138.392,152.336 131.5,160.5 Z"/></g>
<g><path style="opacity:1" fill="#cecece" d="M 72.5,115.5 C 67.9331,115.604 63.4331,116.938 59,119.5C 56.7649,123.642 54.7649,127.975 53,132.5C 52.3333,135.833 52.3333,139.167 53,142.5C 57.3463,155.006 66.013,160.006 79,157.5C 80.0111,158.056 80.8444,158.722 81.5,159.5C 80.8333,160.833 79.8333,161.833 78.5,162.5C 76.0075,163.774 73.3408,164.44 70.5,164.5C 54.7074,163.709 46.0407,155.376 44.5,139.5C 45.5218,128.503 50.8551,120.503 60.5,115.5C 64.5478,114.322 68.5478,114.322 72.5,115.5 Z"/></g>
<g><path style="opacity:1" fill="#a60291" d="M 78.5,162.5 C 79.8333,161.833 80.8333,160.833 81.5,159.5C 84.0511,153.817 85.0511,147.817 84.5,141.5C 84.8333,141.5 85.1667,141.5 85.5,141.5C 85.335,144.85 85.5017,148.183 86,151.5C 86.4652,152.931 87.2986,154.097 88.5,155C 91.6703,156.417 94.6703,158.084 97.5,160C 102.833,160.667 108.167,160.667 113.5,160C 134.812,150.164 140.646,134.33 131,112.5C 111.094,91.6779 92.594,92.8446 75.5,116C 76.8333,117.333 78.1667,118.667 79.5,120C 78.944,120.383 78.6107,120.883 78.5,121.5C 76.863,119.525 75.1964,117.525 73.5,115.5C 73.0472,114.542 72.3805,113.708 71.5,113C 80.8745,98.3145 94.2078,92.3145 111.5,95C 120.658,95.4878 126.825,99.9878 130,108.5C 134.907,110.946 137.907,114.946 139,120.5C 139.667,126.833 139.667,133.167 139,139.5C 136.366,143.062 134.699,147.062 134,151.5C 130.689,154.609 128.522,158.276 127.5,162.5C 124.275,165.124 120.609,167.291 116.5,169C 105.375,173.789 94.375,173.456 83.5,168C 80.7656,167.002 79.0989,165.168 78.5,162.5 Z"/></g>
<g><path style="opacity:1" fill="#f3f1f2" d="M 131.5,160.5 C 131.5,160.833 131.5,161.167 131.5,161.5C 129.571,180.608 119.405,187.608 101,182.5C 98.3528,179.51 95.1861,177.344 91.5,176C 94.3647,175.817 97.0314,175.317 99.5,174.5C 111.903,173.628 122.57,168.961 131.5,160.5 Z"/></g>
<g><path style="opacity:1" fill="#c0bfbf" d="M 131.5,161.5 C 132.359,174.24 126.692,183.073 114.5,188C 101.408,190.288 92.0746,185.455 86.5,173.5C 90.7685,174.373 95.1018,174.706 99.5,174.5C 97.0314,175.317 94.3647,175.817 91.5,176C 95.1861,177.344 98.3528,179.51 101,182.5C 119.405,187.608 129.571,180.608 131.5,161.5 Z"/></g>
</svg>
