<?xml version="1.0" encoding="UTF-8"?>
<!DOCTYPE svg PUBLIC "-//W3C//DTD SVG 1.1//EN" "http://www.w3.org/Graphics/SVG/1.1/DTD/svg11.dtd">
<svg xmlns="http://www.w3.org/2000/svg" version="1.1" width="64px" height="64px" style="shape-rendering:geometricPrecision; text-rendering:geometricPrecision; image-rendering:optimizeQuality; fill-rule:evenodd; clip-rule:evenodd" xmlns:xlink="http://www.w3.org/1999/xlink">
<g><path style="opacity:0.998" fill="#131313" d="M 22.5,-0.5 C 27.8333,-0.5 33.1667,-0.5 38.5,-0.5C 44.5456,1.20326 49.5456,4.53659 53.5,9.5C 52.8333,9.5 52.5,9.83333 52.5,10.5C 51.8333,10.5 51.5,10.8333 51.5,11.5C 50.8333,11.5 50.5,11.8333 50.5,12.5C 49.8333,12.5 49.5,12.8333 49.5,13.5C 48.8333,13.5 48.5,13.8333 48.5,14.5C 47.8333,14.5 47.5,14.8333 47.5,15.5C 46.8333,15.5 46.5,15.8333 46.5,16.5C 45.8333,16.5 45.5,16.8333 45.5,17.5C 44.8333,17.5 44.5,17.8333 44.5,18.5C 43.8333,18.5 43.5,18.8333 43.5,19.5C 42.8333,19.5 42.5,19.8333 42.5,20.5C 41.8333,20.5 41.5,20.8333 41.5,21.5C 40.8333,21.5 40.5,21.8333 40.5,22.5C 39.8333,22.5 39.5,22.8333 39.5,23.5C 38.8333,23.5 38.5,23.8333 38.5,24.5C 37.8333,24.5 37.5,24.8333 37.5,25.5C 36.8333,25.5 36.5,25.8333 36.5,26.5C 35.8333,26.5 35.5,26.8333 35.5,27.5C 34.8333,27.5 34.5,27.8333 34.5,28.5C 33.8333,28.5 33.5,28.8333 33.5,29.5C 32.8333,29.5 32.5,29.8333 32.5,30.5C 31.8333,30.5 31.5,30.8333 31.5,31.5C 30.8333,31.5 30.5,31.8333 30.5,32.5C 29.8333,32.5 29.5,32.8333 29.5,33.5C 28.8333,33.5 28.5,33.8333 28.5,34.5C 27.8333,34.5 27.5,34.8333 27.5,35.5C 26.8333,35.5 26.5,35.8333 26.5,36.5C 25.8333,36.5 25.5,36.8333 25.5,37.5C 24.8333,37.5 24.5,37.8333 24.5,38.5C 23.8333,38.5 23.5,38.8333 23.5,39.5C 22.8333,39.5 22.5,39.8333 22.5,40.5C 21.8333,40.5 21.5,40.8333 21.5,41.5C 20.8333,41.5 20.5,41.8333 20.5,42.5C 19.8333,42.5 19.5,42.8333 19.5,43.5C 18.8333,43.5 18.5,43.8333 18.5,44.5C 17.8333,44.5 17.5,44.8333 17.5,45.5C 16.8333,45.5 16.5,45.8333 16.5,46.5C 15.8333,46.5 15.5,46.8333 15.5,47.5C 14.8333,47.5 14.5,47.8333 14.5,48.5C 13.8333,48.5 13.5,48.8333 13.5,49.5C 12.8333,49.5 12.5,49.8333 12.5,50.5C 11.8333,50.5 11.5,50.8333 11.5,51.5C 10.8333,51.5 10.5,51.8333 10.5,52.5C 9.83333,52.5 9.5,52.8333 9.5,53.5C 5.35181,49.0231 2.01848,44.0231 -0.5,38.5C -0.5,33.1667 -0.5,27.8333 -0.5,22.5C 3.5086,11.1581 11.1753,3.4914 22.5,-0.5 Z M 27.5,3.5 C 29.288,3.21478 30.9547,3.54811 32.5,4.5C 29.0079,9.80228 24.3412,10.6356 18.5,7C 21.6621,5.97252 24.6621,4.80586 27.5,3.5 Z M 38.5,5.5 C 41.5928,6.21382 44.2595,7.71382 46.5,10C 44.3333,12.1667 42.1667,14.3333 40,16.5C 37.6667,14.9938 35.5,13.3271 33.5,11.5C 35.914,10.0892 37.5806,8.08917 38.5,5.5 Z M 16.5,13.5 C 18.8473,12.1054 21.1806,12.2721 23.5,14C 22.646,15.0217 21.646,15.8551 20.5,16.5C 19.1482,15.4756 17.8149,14.4756 16.5,13.5 Z M 28.5,15.5 C 31.5162,16.3431 34.1829,17.8431 36.5,20C 34.3333,22.1667 32.1667,24.3333 30,26.5C 27.9824,24.6499 26.1491,22.6499 24.5,20.5C 26.6114,19.3954 27.9447,17.7288 28.5,15.5 Z M 12.5,16.5 C 16.2372,18.5213 16.7372,20.8546 14,23.5C 13.023,21.26 12.523,18.9267 12.5,16.5 Z M 6.5,18.5 C 10.6226,23.7081 10.1226,28.3747 5,32.5C 4.13008,31.8921 3.63008,31.0588 3.5,30C 4.58235,26.1699 5.58235,22.3365 6.5,18.5 Z M 20.5,35.5 C 18.2604,33.8932 16.5937,31.7265 15.5,29C 17.64,28.0267 19.3067,26.5267 20.5,24.5C 22.6759,26.1774 24.6759,28.0107 26.5,30C 24.6298,32.0396 22.6298,33.8729 20.5,35.5 Z M 10.5,33.5 C 12.9158,34.9164 14.9158,36.9164 16.5,39.5C 14.517,41.9837 12.3504,44.3171 10,46.5C 8.37422,44.0829 6.87422,41.5829 5.5,39C 8.07904,37.9243 9.74571,36.091 10.5,33.5 Z"/></g>
<g><path style="opacity:0.999" fill="#26a13b" d="M 53.5,9.5 C 58.4634,13.4544 61.7967,18.4544 63.5,24.5C 63.5,29.8333 63.5,35.1667 63.5,40.5C 59.5,51.8333 51.8333,59.5 40.5,63.5C 35.5,63.5 30.5,63.5 25.5,63.5C 19.417,61.427 14.0837,58.0937 9.5,53.5C 10.1667,53.5 10.5,53.1667 10.5,52.5C 11.1667,52.5 11.5,52.1667 11.5,51.5C 12.1667,51.5 12.5,51.1667 12.5,50.5C 13.1667,50.5 13.5,50.1667 13.5,49.5C 14.1667,49.5 14.5,49.1667 14.5,48.5C 15.1667,48.5 15.5,48.1667 15.5,47.5C 16.1667,47.5 16.5,47.1667 16.5,46.5C 17.1667,46.5 17.5,46.1667 17.5,45.5C 18.1667,45.5 18.5,45.1667 18.5,44.5C 19.1667,44.5 19.5,44.1667 19.5,43.5C 20.1667,43.5 20.5,43.1667 20.5,42.5C 21.1667,42.5 21.5,42.1667 21.5,41.5C 22.1667,41.5 22.5,41.1667 22.5,40.5C 23.1667,40.5 23.5,40.1667 23.5,39.5C 24.1667,39.5 24.5,39.1667 24.5,38.5C 25.1667,38.5 25.5,38.1667 25.5,37.5C 26.1667,37.5 26.5,37.1667 26.5,36.5C 27.1667,36.5 27.5,36.1667 27.5,35.5C 28.1667,35.5 28.5,35.1667 28.5,34.5C 29.1667,34.5 29.5,34.1667 29.5,33.5C 30.1667,33.5 30.5,33.1667 30.5,32.5C 31.1667,32.5 31.5,32.1667 31.5,31.5C 32.1667,31.5 32.5,31.1667 32.5,30.5C 33.1667,30.5 33.5,30.1667 33.5,29.5C 34.1667,29.5 34.5,29.1667 34.5,28.5C 35.1667,28.5 35.5,28.1667 35.5,27.5C 36.1667,27.5 36.5,27.1667 36.5,26.5C 37.1667,26.5 37.5,26.1667 37.5,25.5C 38.1667,25.5 38.5,25.1667 38.5,24.5C 39.1667,24.5 39.5,24.1667 39.5,23.5C 40.1667,23.5 40.5,23.1667 40.5,22.5C 41.1667,22.5 41.5,22.1667 41.5,21.5C 42.1667,21.5 42.5,21.1667 42.5,20.5C 43.1667,20.5 43.5,20.1667 43.5,19.5C 44.1667,19.5 44.5,19.1667 44.5,18.5C 45.1667,18.5 45.5,18.1667 45.5,17.5C 46.1667,17.5 46.5,17.1667 46.5,16.5C 47.1667,16.5 47.5,16.1667 47.5,15.5C 48.1667,15.5 48.5,15.1667 48.5,14.5C 49.1667,14.5 49.5,14.1667 49.5,13.5C 50.1667,13.5 50.5,13.1667 50.5,12.5C 51.1667,12.5 51.5,12.1667 51.5,11.5C 52.1667,11.5 52.5,11.1667 52.5,10.5C 53.1667,10.5 53.5,10.1667 53.5,9.5 Z M 52.5,16.5 C 58.9191,21.5096 58.5857,25.843 51.5,29.5C 49.6729,27.5 48.0062,25.3333 46.5,23C 48.7059,20.9633 50.7059,18.7966 52.5,16.5 Z M 42.5,26.5 C 44.4974,28.513 46.164,30.8463 47.5,33.5C 45.6397,34.9387 43.973,36.6053 42.5,38.5C 40.3501,36.8509 38.3501,35.0176 36.5,33C 38.7059,30.9633 40.7059,28.7966 42.5,26.5 Z M 57.5,30.5 C 58.5862,30.62 59.2528,31.2867 59.5,32.5C 58.6417,36.6019 57.475,40.6019 56,44.5C 55.1656,41.8276 54.3323,39.161 53.5,36.5C 54.8435,34.4714 56.1769,32.4714 57.5,30.5 Z M 27.5,42.5 C 29.1271,40.3702 30.9604,38.3702 33,36.5C 34.9893,38.3241 36.8226,40.3241 38.5,42.5C 36.4733,43.6933 34.9733,45.36 34,47.5C 31.2735,46.4063 29.1068,44.7396 27.5,42.5 Z M 48.5,39.5 C 49.1174,39.6107 49.6174,39.944 50,40.5C 51.3073,47.3284 50.1406,47.995 46.5,42.5C 47.1925,41.4822 47.8592,40.4822 48.5,39.5 Z M 22.5,46.5 C 25.0987,47.7608 27.432,49.4275 29.5,51.5C 27.1421,53.0243 25.3088,55.0243 24,57.5C 21.4171,56.1258 18.9171,54.6258 16.5,53C 18.7059,50.9633 20.7059,48.7966 22.5,46.5 Z M 41.5,46.5 C 48.1415,50.5561 47.4748,51.3894 39.5,49C 40.3805,48.2917 41.0472,47.4584 41.5,46.5 Z M 35.5,53.5 C 38.5259,54.1736 41.5259,55.0069 44.5,56C 40.0301,58.1418 35.3635,58.8085 30.5,58C 32.2395,56.483 33.9062,54.983 35.5,53.5 Z"/></g>
</svg>
